# xmcd
#
# Track frame offsets: 
#        150
#        16565
#        43022
#
# Disc length: 1208 seconds
#
# Revision: 7
# Processed by: cddbd v1.5.2PL0 Copyright (c) Steve Scherf et al.
# Submitted via: ExactAudioCopy v1.3
#
DISCID=1504b603
DTITLE=Blue - Curtain Falls
DYEAR=2005
DGENRE=Hip-Hop
TTITLE0=Curtain Falls
TTITLE1=Quand Le Rideau Tombre
TTITLE2=Data
EXTD=
EXTT0=
EXTT1=
EXTT2=
PLAYORDER=
